<?xml version="1.0" standalone="no"?>
<!DOCTYPE svg PUBLIC "-//W3C//DTD SVG 20010904//EN"
 "http://www.w3.org/TR/2001/REC-SVG-20010904/DTD/svg10.dtd">
<svg version="1.0" xmlns="http://www.w3.org/2000/svg"
 width="640.000000pt" height="452.000000pt" viewBox="0 0 640.000000 452.000000"
 preserveAspectRatio="xMidYMid meet">

<g transform="translate(0.000000,452.000000) scale(0.100000,-0.100000)"
fill="#000000" stroke="none">
<path d="M3540 3984 c0 -6 -22 -9 -50 -8 -27 1 -47 -2 -44 -7 3 -5 -1 -6 -8
-4 -12 5 -78 -54 -78 -69 0 -8 62 34 72 49 4 6 8 6 8 1 0 -5 6 -4 13 1 6 5 29
9 50 7 36 -2 60 16 43 33 -3 4 -6 2 -6 -3z"/>
<path d="M3024 3872 c-77 -37 -134 -130 -134 -220 0 -61 38 -156 77 -194 91
-88 266 -118 443 -76 57 14 142 56 135 67 -2 5 3 15 13 22 16 13 16 13 2 -5
-13 -16 -13 -19 0 -14 8 2 18 20 22 39 5 19 14 44 20 56 6 12 8 32 5 45 -3 13
-6 25 -5 28 0 3 -9 24 -20 46 -32 63 -104 121 -178 144 -35 10 -90 32 -121 47
-78 36 -198 43 -259 15z m121 -67 c30 -30 31 -54 4 -89 -39 -50 -121 -21 -118
42 l2 27 4 -27 c8 -50 28 -53 60 -9 15 23 33 39 40 36 7 -2 10 2 6 11 -9 23
-50 28 -81 10 l-27 -17 24 20 c31 28 57 26 86 -4z m380 -106 c75 -80 70 -167
-15 -251 -59 -60 -74 -62 -54 -6 36 103 26 219 -27 303 l-30 47 41 -23 c23
-13 61 -44 85 -70z"/>
<path d="M2664 3325 c-15 -23 -15 -27 0 -50 21 -32 59 -33 80 -3 20 28 20 43
0 62 -24 24 -61 20 -80 -9z"/>
<path d="M3816 3204 c-32 -31 -8 -84 38 -84 29 0 46 18 46 50 0 14 -5 31 -12
38 -17 17 -54 15 -72 -4z"/>
<path d="M3421 3036 c-21 -26 -10 -69 22 -80 23 -8 31 -6 49 12 18 18 20 26
12 49 -7 21 -17 29 -40 31 -18 2 -36 -3 -43 -12z"/>
<path d="M2327 2862 c-22 -24 -21 -45 1 -65 37 -34 82 -15 82 33 0 49 -51 68
-83 32z"/>
<path d="M3060 2530 c-24 -24 -25 -43 -4 -64 18 -19 55 -21 72 -4 19 19 15 66
-7 78 -28 14 -38 13 -61 -10z"/>
<path d="M4152 2474 c-30 -21 -29 -59 3 -80 23 -15 27 -15 50 0 30 20 33 56 7
79 -23 21 -32 21 -60 1z"/>
<path d="M2004 2245 c31 -73 118 -155 183 -171 13 -4 21 -10 18 -14 -2 -4 8
-5 22 -2 25 5 24 6 -14 17 -82 24 -169 98 -198 168 -8 20 -18 37 -20 37 -3 0
1 -16 9 -35z"/>
<path d="M3688 2255 c-9 -19 -8 -29 6 -50 18 -27 36 -31 67 -15 22 12 26 59 7
78 -22 22 -67 14 -80 -13z"/>
<path d="M2210 2256 c-18 -23 -8 -59 22 -75 24 -14 28 -14 47 3 23 21 27 56 9
74 -17 17 -63 15 -78 -2z"/>
<path d="M2170 2025 c-7 -9 -11 -17 -9 -20 3 -2 10 5 17 15 14 24 10 26 -8 5z"/>
<path d="M2152 1965 c0 -16 2 -22 5 -12 2 9 2 23 0 30 -3 6 -5 -1 -5 -18z"/>
<path d="M2170 1907 c0 -2 15 -16 33 -33 l32 -29 -29 33 c-28 30 -36 37 -36
29z"/>
<path d="M2235 1810 c-57 -5 -55 -5 44 -13 57 -4 106 -5 109 -2 3 3 -9 5 -27
5 -18 0 -40 3 -49 8 -9 4 -44 5 -77 2z"/>
<path d="M3328 1773 c7 -3 16 -2 19 1 4 3 -2 6 -13 5 -11 0 -14 -3 -6 -6z"/>
</g>
</svg>
