<?xml version="1.0" standalone="no"?>
<!DOCTYPE svg PUBLIC "-//W3C//DTD SVG 20010904//EN"
 "http://www.w3.org/TR/2001/REC-SVG-20010904/DTD/svg10.dtd">
<svg version="1.0" xmlns="http://www.w3.org/2000/svg"
 width="640.000000pt" height="617.000000pt" viewBox="0 0 640.000000 617.000000"
 preserveAspectRatio="xMidYMid meet">

<g transform="translate(0.000000,617.000000) scale(0.100000,-0.100000)"
fill="#000000" stroke="none">
<path d="M2158 5439 c-160 -37 -305 -199 -316 -351 -4 -46 0 -62 16 -82 10
-14 23 -22 27 -18 5 4 5 2 2 -4 -3 -6 1 -30 9 -53 11 -33 12 -46 3 -57 -16
-20 -37 -17 -49 6 -21 40 -53 52 -104 39 -32 -8 -58 -8 -86 -1 -21 5 -42 7
-45 3 -4 -3 -10 -6 -13 -7 -4 0 -25 -6 -47 -12 -40 -11 -90 -5 -123 16 -14 10
-6 41 12 43 6 1 18 2 26 3 9 0 14 9 12 21 -10 61 5 85 53 85 25 0 40 -8 59
-31 14 -17 26 -37 26 -45 0 -17 28 -24 105 -27 55 -2 60 0 63 20 8 52 -142
109 -267 101 -226 -15 -391 -184 -391 -401 1 -292 256 -546 696 -693 l109 -36
59 19 59 20 -36 7 c-48 9 -87 55 -87 104 0 44 30 88 54 79 18 -7 22 -32 6 -42
-5 -3 -10 -22 -10 -40 0 -38 20 -55 66 -55 l28 0 -26 28 c-35 38 -40 58 -24
97 25 59 84 72 135 30 16 -14 33 -35 36 -45 5 -16 15 -20 53 -20 59 0 66 5 79
57 9 37 9 43 -7 48 -45 14 -70 46 -70 87 0 34 7 47 39 79 35 35 44 39 89 39
41 0 55 -5 80 -28 37 -35 54 -93 43 -144 -7 -32 -5 -40 15 -59 15 -14 28 -19
34 -13 17 17 91 225 115 325 83 342 45 601 -113 779 -95 108 -259 161 -394
129z m2 -59 c11 -11 20 -26 20 -34 0 -8 3 -21 6 -30 6 -17 -48 -56 -79 -56
-31 0 -33 31 -4 52 15 11 27 24 27 29 0 14 -54 11 -75 -4 -42 -32 20 -112 70
-89 19 9 26 8 36 -5 11 -13 10 -18 -10 -34 -13 -11 -33 -19 -45 -19 -59 0
-128 87 -110 139 21 60 123 92 164 51z m244 -11 c20 -24 26 -41 26 -79 0 -55
-11 -67 -59 -66 -30 1 -36 5 -43 34 -10 37 -31 38 -36 3 -5 -31 23 -59 70 -72
40 -10 58 -33 41 -50 -6 -6 -28 -3 -60 6 -58 17 -103 62 -103 101 0 13 -8 32
-19 42 -18 16 -17 19 33 64 65 61 109 66 150 17z m185 -193 c54 -58 27 -192
-37 -184 -19 2 -28 10 -30 24 -2 12 -14 26 -28 32 -33 16 -59 72 -49 108 5 16
8 31 7 34 0 3 25 7 57 8 49 3 59 0 80 -22z m-436 -80 c58 -33 92 -98 84 -158
-5 -41 -40 -88 -64 -88 -24 0 -26 30 -4 54 42 44 15 128 -52 159 -64 31 -117
14 -117 -37 0 -48 54 -64 70 -20 14 36 45 29 45 -11 0 -25 -7 -33 -38 -49 -32
-15 -42 -16 -68 -6 -16 7 -36 25 -44 41 -24 46 -19 77 20 116 32 32 39 35 80
31 24 -3 64 -17 88 -32z m271 -107 c36 -28 37 -89 1 -124 -27 -28 -37 -30 -66
-15 -26 14 -26 60 0 60 11 0 21 -6 23 -12 3 -8 10 -4 17 11 11 20 10 26 -3 39
-21 21 -43 8 -68 -40 -57 -109 -22 -164 77 -122 41 17 65 13 65 -10 0 -16 -96
-56 -135 -56 -13 0 -36 11 -52 24 -24 21 -27 31 -27 77 2 87 66 189 119 189
12 0 34 -9 49 -21z m-1096 -55 c41 -29 19 -114 -30 -114 -11 0 -18 7 -18 20 0
11 5 20 10 20 6 0 10 9 10 20 0 28 -14 25 -44 -11 -31 -37 -32 -53 -6 -79 26
-26 42 -25 79 6 32 27 51 25 51 -6 0 -51 -109 -80 -157 -42 -55 42 -39 140 29
182 40 24 47 24 76 4z m1312 -14 c21 -21 23 -29 14 -55 -8 -20 -62 -48 -80
-41 -23 9 -16 36 14 48 26 11 27 12 4 16 -30 5 -52 -14 -52 -44 0 -31 33 -48
82 -41 30 4 41 1 45 -10 9 -23 -24 -43 -70 -43 -31 0 -46 7 -73 34 -46 46 -46
83 1 125 42 36 85 41 115 11z m-577 -42 c31 -36 13 -104 -30 -115 -38 -9 -53
14 -25 37 24 20 29 45 10 56 -17 11 -78 -61 -78 -93 0 -43 26 -63 82 -63 41 0
54 5 88 36 34 31 38 38 27 55 -17 27 3 45 32 30 26 -14 28 -57 5 -90 -30 -42
-103 -81 -153 -81 -60 0 -109 30 -118 70 -6 31 -23 42 -23 15 0 -23 -60 -55
-103 -55 -31 0 -46 7 -73 34 -38 38 -41 48 -18 67 14 11 18 10 30 -6 7 -11 18
-26 24 -32 14 -16 72 -17 88 -1 19 19 14 55 -10 72 -31 22 -39 20 -32 -8 8
-31 -12 -43 -37 -20 -21 19 -25 54 -7 72 17 17 79 15 105 -3 12 -8 27 -32 34
-53 l12 -37 10 35 c10 41 30 65 72 91 34 21 62 17 88 -13z m-448 -43 c34 -33
33 -84 -1 -124 -28 -34 -55 -39 -74 -16 -17 20 -4 49 19 42 13 -3 22 3 30 19
9 20 7 28 -9 44 -24 24 -29 24 -57 5 -28 -20 -47 -78 -39 -120 12 -62 79 -85
130 -44 35 27 56 13 38 -25 -16 -36 -79 -53 -132 -37 -94 28 -117 176 -40 253
38 38 99 39 135 3z m950 -150 c35 -35 33 -76 -6 -109 -35 -30 -51 -32 -69 -11
-15 18 -5 31 25 37 25 4 28 51 4 56 -24 4 -69 -36 -69 -63 0 -49 80 -73 115
-35 10 11 26 20 37 20 46 0 -5 -76 -57 -86 -48 -9 -82 2 -116 36 -54 53 -29
129 53 165 46 20 55 19 83 -10z m-266 -30 c36 -31 55 -84 47 -129 -7 -38 -47
-86 -71 -86 -28 0 -29 29 -1 55 14 13 26 31 26 40 0 14 -4 13 -26 -4 -55 -43
-154 -12 -154 49 0 28 26 77 47 89 34 20 99 13 132 -14z m-453 -24 c35 -21 64
-75 64 -118 0 -38 -42 -97 -80 -113 -38 -16 -83 -4 -88 24 -5 25 14 44 30 28
31 -31 88 14 88 68 0 68 -91 112 -98 47 -3 -23 2 -29 28 -38 20 -8 30 -17 28
-28 -5 -24 -50 -25 -81 -1 -38 30 -37 81 2 121 34 34 64 37 107 10z m-438 -15
c59 -32 80 -123 42 -180 -42 -65 -146 -97 -196 -61 -30 20 -50 73 -35 88 9 9
19 3 44 -27 29 -34 36 -38 65 -32 17 4 45 20 62 36 51 48 34 140 -26 140 -23
0 -44 -25 -44 -54 0 -9 8 -16 19 -16 25 0 34 -25 15 -41 -11 -9 -21 -9 -39 -1
-75 34 -35 162 50 161 11 0 30 -5 43 -13z m667 -130 c32 -32 40 -69 25 -107
-11 -26 -18 -30 -44 -27 -37 4 -50 36 -17 45 38 10 19 63 -23 63 -52 0 -75
-72 -34 -110 29 -27 96 -27 131 0 45 35 86 18 51 -22 -84 -92 -254 -43 -254
73 0 29 8 46 34 73 42 45 93 50 131 12z m-453 -73 c39 -36 6 -133 -47 -133
-24 0 -35 17 -35 52 0 15 6 19 27 16 19 -2 29 2 31 13 4 24 -25 31 -57 14 -51
-26 -55 -79 -11 -124 36 -36 63 -46 88 -32 29 15 47 -7 25 -31 -36 -40 -123
-9 -170 61 -27 40 -29 71 -8 115 28 59 115 87 157 49z m248 -105 c60 -41 65
-125 10 -180 -33 -33 -49 -35 -81 -9 -20 16 -21 21 -10 35 10 12 18 13 33 5
26 -14 37 -3 45 45 4 27 1 41 -12 56 -20 22 -60 27 -71 9 -9 -15 12 -33 39
-34 15 0 22 -6 22 -20 0 -16 -8 -21 -36 -23 -70 -6 -101 75 -47 121 28 23 68
21 108 -5z"/>
<path d="M2320 5345 c-10 -12 -8 -16 15 -25 14 -5 31 -10 36 -10 17 0 9 29
-10 40 -25 13 -26 13 -41 -5z"/>
<path d="M2503 5153 c-19 -7 -16 -38 6 -57 19 -17 20 -17 31 3 6 12 15 19 21
16 16 -11 10 11 -9 28 -19 17 -28 19 -49 10z"/>
<path d="M2192 4624 c-27 -18 -29 -50 -4 -63 23 -12 59 -4 66 15 3 8 13 14 23
14 15 1 13 5 -10 25 -33 29 -45 31 -75 9z"/>
<path d="M1530 5025 c0 -3 9 -15 20 -27 17 -18 20 -19 20 -5 0 9 -9 21 -20 27
-11 6 -20 8 -20 5z"/>
<path d="M2330 4384 c-40 -34 -39 -74 2 -88 22 -8 32 -6 48 9 11 10 20 27 20
38 0 15 5 18 25 15 32 -7 32 5 -1 31 -35 28 -56 26 -94 -5z"/>
<path d="M2439 4306 c-14 -30 -14 -36 -2 -36 17 0 26 21 21 51 -3 18 -5 16
-19 -15z"/>
<path d="M2070 4160 c-13 -24 -4 -46 13 -31 7 5 25 11 41 13 28 3 29 4 12 21
-23 23 -53 22 -66 -3z"/>
<path d="M4628 3283 c12 -2 32 -2 45 0 12 2 2 4 -23 4 -25 0 -35 -2 -22 -4z"/>
<path d="M4727 3252 l-27 -26 -422 -1 c-279 -1 -448 -5 -497 -13 -40 -7 -151
-15 -245 -17 -94 -3 -189 -7 -211 -10 -22 -3 -130 -5 -239 -5 -141 -1 -204 -4
-215 -13 -12 -10 -13 -9 -7 1 6 9 1 11 -21 7 -34 -6 -296 -7 -338 -1 -107 16
-144 19 -270 21 -88 1 -151 6 -170 14 -18 8 -91 15 -190 18 -88 2 -171 8 -185
12 -16 5 -52 1 -100 -11 -41 -10 -109 -21 -150 -25 -51 -4 -79 -11 -87 -22
-19 -25 -16 -28 39 -34 75 -9 133 -50 203 -141 33 -44 72 -88 87 -99 24 -18
32 -19 67 -8 22 6 69 36 103 66 85 74 119 89 198 89 69 0 109 -16 216 -83 75
-47 145 -52 210 -16 27 15 56 33 64 40 41 35 127 68 183 70 72 3 127 -21 207
-91 113 -97 173 -98 292 -3 81 64 130 82 210 76 63 -4 75 -9 160 -65 51 -33
105 -64 119 -67 37 -9 88 15 159 75 87 71 128 90 201 91 56 1 72 -4 173 -55
61 -31 121 -56 134 -56 43 0 90 28 172 104 77 71 157 116 206 116 13 0 12 5
-5 28 -18 26 -18 29 -3 39 9 6 15 13 11 17 -3 3 -17 -7 -32 -22z m-1482 -110
c-3 -3 -11 0 -18 7 -9 10 -8 11 6 5 10 -3 15 -9 12 -12z m-1035 -52 c0 -5 -2
-10 -4 -10 -3 0 -8 5 -11 10 -3 6 -1 10 4 10 6 0 11 -4 11 -10z"/>
<path d="M3858 3253 c7 -3 16 -2 19 1 4 3 -2 6 -13 5 -11 0 -14 -3 -6 -6z"/>
<path d="M4178 3253 c7 -3 16 -2 19 1 4 3 -2 6 -13 5 -11 0 -14 -3 -6 -6z"/>
<path d="M3798 3243 c7 -3 16 -2 19 1 4 3 -2 6 -13 5 -11 0 -14 -3 -6 -6z"/>
<path d="M4098 3243 c6 -2 18 -2 25 0 6 3 1 5 -13 5 -14 0 -19 -2 -12 -5z"/>
<path d="M3738 3233 c7 -3 16 -2 19 1 4 3 -2 6 -13 5 -11 0 -14 -3 -6 -6z"/>
<path d="M3663 3223 c9 -2 23 -2 30 0 6 3 -1 5 -18 5 -16 0 -22 -2 -12 -5z"/>
<path d="M3573 3213 c9 -2 23 -2 30 0 6 3 -1 5 -18 5 -16 0 -22 -2 -12 -5z"/>
<path d="M4395 1725 c-30 -29 -31 -49 -5 -75 27 -27 56 -25 85 5 30 29 32 56
7 78 -26 24 -59 21 -87 -8z"/>
<path d="M1710 1694 c-19 -22 -1 -66 35 -83 58 -28 110 34 66 78 -25 25 -83
28 -101 5z"/>
<path d="M4071 1654 c-25 -32 -25 -33 -5 -62 20 -29 56 -28 91 2 24 21 26 27
18 52 -9 24 -17 30 -47 32 -29 2 -40 -2 -57 -24z"/>
<path d="M2053 1559 c-28 -10 -36 -25 -29 -55 12 -46 94 -55 117 -12 22 41
-37 86 -88 67z"/>
<path d="M4292 1514 c-24 -17 -29 -53 -10 -72 32 -32 108 -1 108 44 0 43 -54
59 -98 28z"/>
<path d="M1765 1450 c-3 -5 -22 -10 -41 -10 -61 0 -35 -25 29 -28 60 -3 63 -2
47 29 -12 21 -25 25 -35 9z"/>
<path d="M3888 1439 c-10 -5 -18 -21 -18 -34 0 -24 3 -25 55 -25 59 0 79 16
58 49 -12 19 -70 25 -95 10z"/>
<path d="M3037 1393 c-14 -13 -6 -33 13 -33 22 0 23 1 14 24 -7 17 -16 20 -27
9z"/>
<path d="M3305 901 c-3 -5 -1 -12 5 -16 5 -3 10 1 10 9 0 18 -6 21 -15 7z"/>
</g>
</svg>
